<?xml version="1.0" encoding="utf-8"?>
<svg id="svg_placeholder" xmlns="http://www.w3.org/2000/svg" version="1.1">
    <g>
        <rect id="svg_placeholder_bg" width="100%" height="100%" fill="#D1D1D1"/>
    </g>
    <g id="svg_placeholder_icon">
        <path d="M29.996 4c0.001 0.001 0.003 0.002 0.004 0.004v23.993c-0.001 0.001-0.002 0.003-0.004 0.004h-27.993c-0.001-0.001-0.003-0.002-0.004-0.004v-23.993c0.001-0.001 0.002-0.003 0.004-0.004h27.993zM30 2h-28c-1.1 0-2 0.9-2 2v24c0 1.1 0.9 2 2 2h28c1.1 0 2-0.9 2-2v-24c0-1.1-0.9-2-2-2v0z" fill="#fff"></path>
        <path d="M26 9c0 1.657-1.343 3-3 3s-3-1.343-3-3 1.343-3 3-3 3 1.343 3 3z" fill="#fff"></path>
        <path d="M28 26h-24v-4l7-12 8 10h2l7-6z" fill="#fff"></path>
    </g>
<script type="application/ecmascript"><![CDATA[
		
	// when used as an object, we'll allow attributes to be changed by params passed in the query string
	var paramList = ['width','height'];
	var refs = [];
	var href = document.defaultView.location.href;

	if ( -1 != href.indexOf("?") ) {
    	var paramList = href.split("?")[1].split(/&|;/);
    	for ( var p = 0, pLen = paramList.length; pLen > p; p++ ) {
       		var eachParam = paramList[ p ];
       		var valList = eachParam.split("=");
       		var name = unescape(valList[0]);
       		var value = unescape(valList[1]);
       		refs[name] = value;
    	}
}

// do stuff with the params
var img = document.getElementById("svg_placeholder");
img.setAttribute("x", refs['width']);
img.setAttribute("y", refs['height']);
var vb = "0 0 "+refs['width']+" "+refs['height'];
img.setAttribute("viewBox", vb);
img.setAttribute("width", refs['width']);
img.setAttribute("height", refs['height']);
var icon = document.getElementById("svg_placeholder_icon");
var trw = refs['width']/2-16;
var trh = refs['height']/2-16;
var iconTr = 'translate('+trw+','+trh+')';
icon.setAttribute("transform", iconTr);

]]></script>
</svg>